<svg xmlns="http://www.w3.org/2000/svg" viewBox="0 0 1280 220" width="1280" height="220" role="img" aria-label="James Liebel, Data Science and Statistics, University of Chicago class of 2030">
<title>James Liebel, Data Science and Statistics, University of Chicago class of 2030</title>
<defs>
<linearGradient id="bar" x1="0" y1="1" x2="0" y2="0"><stop offset="0%" stop-color="#3f5f96" stop-opacity="0.55"/><stop offset="100%" stop-color="#8fb6e8"/></linearGradient>
<linearGradient id="scrim" x1="0" y1="0" x2="1" y2="0"><stop offset="0%" stop-color="#101318"/><stop offset="58%" stop-color="#101318"/><stop offset="100%" stop-color="#101318" stop-opacity="0"/></linearGradient>
<style>
.b{fill:url(#bar);transform-box:fill-box;transform-origin:50% 100%;animation:rise .9s cubic-bezier(.22,1,.36,1) both, wave 7s ease-in-out infinite}
@keyframes rise{from{transform:scaleY(0);opacity:0}to{transform:scaleY(1);opacity:1}}
@keyframes wave{0%,100%{opacity:1}50%{opacity:.72}}
@media (prefers-reduced-motion:reduce){.b{animation:none}}
</style>
</defs>
<rect width="1280" height="220" fill="#101318"/>
<g><rect class="b" x="0.00" y="194.00" width="3.17" height="26.00" style="animation-delay:0.000s,0.000s"/><rect class="b" x="4.65" y="193.49" width="3.17" height="26.51" style="animation-delay:0.004s,0.012s"/><rect class="b" x="9.31" y="192.89" width="3.17" height="27.11" style="animation-delay:0.007s,0.024s"/><rect class="b" x="13.96" y="191.33" width="3.17" height="28.67" style="animation-delay:0.011s,0.036s"/><rect class="b" x="18.62" y="190.46" width="3.17" height="29.54" style="animation-delay:0.014s,0.048s"/><rect class="b" x="23.27" y="189.49" width="3.17" height="30.51" style="animation-delay:0.018s,0.060s"/><rect class="b" x="27.93" y="188.56" width="3.17" height="31.44" style="animation-delay:0.021s,0.072s"/><rect class="b" x="32.58" y="188.39" width="3.17" height="31.61" style="animation-delay:0.025s,0.084s"/><rect class="b" x="37.24" y="189.14" width="3.17" height="30.86" style="animation-delay:0.028s,0.096s"/><rect class="b" x="41.89" y="189.66" width="3.17" height="30.34" style="animation-delay:0.032s,0.108s"/><rect class="b" x="46.55" y="189.43" width="3.17" height="30.57" style="animation-delay:0.035s,0.120s"/><rect class="b" x="51.20" y="189.76" width="3.17" height="30.24" style="animation-delay:0.038s,0.132s"/><rect class="b" x="55.85" y="188.32" width="3.17" height="31.68" style="animation-delay:0.042s,0.144s"/><rect class="b" x="60.51" y="187.03" width="3.17" height="32.97" style="animation-delay:0.045s,0.156s"/><rect class="b" x="65.16" y="184.71" width="3.17" height="35.29" style="animation-delay:0.049s,0.168s"/><rect class="b" x="69.82" y="183.25" width="3.17" height="36.75" style="animation-delay:0.052s,0.180s"/><rect class="b" x="74.47" y="181.33" width="3.17" height="38.67" style="animation-delay:0.056s,0.192s"/><rect class="b" x="79.13" y="180.41" width="3.17" height="39.59" style="animation-delay:0.060s,0.204s"/><rect class="b" x="83.78" y="179.59" width="3.17" height="40.41" style="animation-delay:0.063s,0.216s"/><rect class="b" x="88.44" y="179.06" width="3.17" height="40.94" style="animation-delay:0.067s,0.228s"/><rect class="b" x="93.09" y="178.67" width="3.17" height="41.33" style="animation-delay:0.070s,0.240s"/><rect class="b" x="97.75" y="178.54" width="3.17" height="41.46" style="animation-delay:0.073s,0.252s"/><rect class="b" x="102.40" y="177.82" width="3.17" height="42.18" style="animation-delay:0.077s,0.264s"/><rect class="b" x="107.05" y="176.46" width="3.17" height="43.54" style="animation-delay:0.081s,0.276s"/><rect class="b" x="111.71" y="175.72" width="3.17" height="44.28" style="animation-delay:0.084s,0.288s"/><rect class="b" x="116.36" y="175.34" width="3.17" height="44.66" style="animation-delay:0.088s,0.300s"/><rect class="b" x="121.02" y="175.40" width="3.17" height="44.60" style="animation-delay:0.091s,0.312s"/><rect class="b" x="125.67" y="175.92" width="3.17" height="44.08" style="animation-delay:0.095s,0.324s"/><rect class="b" x="130.33" y="175.98" width="3.17" height="44.02" style="animation-delay:0.098s,0.336s"/><rect class="b" x="134.98" y="175.90" width="3.17" height="44.10" style="animation-delay:0.102s,0.348s"/><rect class="b" x="139.64" y="175.41" width="3.17" height="44.59" style="animation-delay:0.105s,0.360s"/><rect class="b" x="144.29" y="174.55" width="3.17" height="45.45" style="animation-delay:0.108s,0.372s"/><rect class="b" x="148.95" y="173.26" width="3.17" height="46.74" style="animation-delay:0.112s,0.384s"/><rect class="b" x="153.60" y="172.47" width="3.17" height="47.53" style="animation-delay:0.116s,0.396s"/><rect class="b" x="158.25" y="171.68" width="3.17" height="48.32" style="animation-delay:0.119s,0.408s"/><rect class="b" x="162.91" y="171.06" width="3.17" height="48.94" style="animation-delay:0.122s,0.420s"/><rect class="b" x="167.56" y="170.82" width="3.17" height="49.18" style="animation-delay:0.126s,0.432s"/><rect class="b" x="172.22" y="170.27" width="3.17" height="49.73" style="animation-delay:0.130s,0.444s"/><rect class="b" x="176.87" y="169.81" width="3.17" height="50.19" style="animation-delay:0.133s,0.456s"/><rect class="b" x="181.53" y="169.02" width="3.17" height="50.98" style="animation-delay:0.137s,0.468s"/><rect class="b" x="186.18" y="168.24" width="3.17" height="51.76" style="animation-delay:0.140s,0.480s"/><rect class="b" x="190.84" y="168.06" width="3.17" height="51.94" style="animation-delay:0.144s,0.492s"/><rect class="b" x="195.49" y="167.45" width="3.17" height="52.55" style="animation-delay:0.147s,0.504s"/><rect class="b" x="200.15" y="167.82" width="3.17" height="52.18" style="animation-delay:0.150s,0.516s"/><rect class="b" x="204.80" y="168.43" width="3.17" height="51.57" style="animation-delay:0.154s,0.528s"/><rect class="b" x="209.45" y="168.06" width="3.17" height="51.94" style="animation-delay:0.158s,0.540s"/><rect class="b" x="214.11" y="166.93" width="3.17" height="53.07" style="animation-delay:0.161s,0.552s"/><rect class="b" x="218.76" y="165.85" width="3.17" height="54.15" style="animation-delay:0.165s,0.564s"/><rect class="b" x="223.42" y="165.02" width="3.17" height="54.98" style="animation-delay:0.168s,0.576s"/><rect class="b" x="228.07" y="164.04" width="3.17" height="55.96" style="animation-delay:0.172s,0.588s"/><rect class="b" x="232.73" y="163.96" width="3.17" height="56.04" style="animation-delay:0.175s,0.600s"/><rect class="b" x="237.38" y="163.66" width="3.17" height="56.34" style="animation-delay:0.178s,0.612s"/><rect class="b" x="242.04" y="162.64" width="3.17" height="57.36" style="animation-delay:0.182s,0.624s"/><rect class="b" x="246.69" y="162.68" width="3.17" height="57.32" style="animation-delay:0.185s,0.636s"/><rect class="b" x="251.35" y="162.45" width="3.17" height="57.55" style="animation-delay:0.189s,0.648s"/><rect class="b" x="256.00" y="162.80" width="3.17" height="57.20" style="animation-delay:0.193s,0.660s"/><rect class="b" x="260.65" y="162.45" width="3.17" height="57.55" style="animation-delay:0.196s,0.672s"/><rect class="b" x="265.31" y="161.64" width="3.17" height="58.36" style="animation-delay:0.200s,0.684s"/><rect class="b" x="269.96" y="160.89" width="3.17" height="59.11" style="animation-delay:0.203s,0.696s"/><rect class="b" x="274.62" y="159.98" width="3.17" height="60.02" style="animation-delay:0.207s,0.708s"/><rect class="b" x="279.27" y="159.08" width="3.17" height="60.92" style="animation-delay:0.210s,0.720s"/><rect class="b" x="283.93" y="158.60" width="3.17" height="61.40" style="animation-delay:0.213s,0.732s"/><rect class="b" x="288.58" y="158.15" width="3.17" height="61.85" style="animation-delay:0.217s,0.744s"/><rect class="b" x="293.24" y="157.93" width="3.17" height="62.07" style="animation-delay:0.221s,0.756s"/><rect class="b" x="297.89" y="157.32" width="3.17" height="62.68" style="animation-delay:0.224s,0.768s"/><rect class="b" x="302.55" y="156.76" width="3.17" height="63.24" style="animation-delay:0.228s,0.780s"/><rect class="b" x="307.20" y="155.95" width="3.17" height="64.05" style="animation-delay:0.231s,0.792s"/><rect class="b" x="311.85" y="155.36" width="3.17" height="64.64" style="animation-delay:0.235s,0.804s"/><rect class="b" x="316.51" y="154.40" width="3.17" height="65.60" style="animation-delay:0.238s,0.816s"/><rect class="b" x="321.16" y="153.84" width="3.17" height="66.16" style="animation-delay:0.241s,0.828s"/><rect class="b" x="325.82" y="153.16" width="3.17" height="66.84" style="animation-delay:0.245s,0.840s"/><rect class="b" x="330.47" y="152.85" width="3.17" height="67.15" style="animation-delay:0.248s,0.852s"/><rect class="b" x="335.13" y="151.70" width="3.17" height="68.30" style="animation-delay:0.252s,0.864s"/><rect class="b" x="339.78" y="150.99" width="3.17" height="69.01" style="animation-delay:0.256s,0.876s"/><rect class="b" x="344.44" y="150.06" width="3.17" height="69.94" style="animation-delay:0.259s,0.888s"/><rect class="b" x="349.09" y="148.89" width="3.17" height="71.11" style="animation-delay:0.263s,0.900s"/><rect class="b" x="353.75" y="147.68" width="3.17" height="72.32" style="animation-delay:0.266s,0.912s"/><rect class="b" x="358.40" y="147.20" width="3.17" height="72.80" style="animation-delay:0.270s,0.924s"/><rect class="b" x="363.05" y="146.55" width="3.17" height="73.45" style="animation-delay:0.273s,0.936s"/><rect class="b" x="367.71" y="145.89" width="3.17" height="74.11" style="animation-delay:0.277s,0.948s"/><rect class="b" x="372.36" y="145.37" width="3.17" height="74.63" style="animation-delay:0.280s,0.960s"/><rect class="b" x="377.02" y="145.14" width="3.17" height="74.86" style="animation-delay:0.284s,0.972s"/><rect class="b" x="381.67" y="144.43" width="3.17" height="75.57" style="animation-delay:0.287s,0.984s"/><rect class="b" x="386.33" y="143.69" width="3.17" height="76.31" style="animation-delay:0.290s,0.996s"/><rect class="b" x="390.98" y="142.48" width="3.17" height="77.52" style="animation-delay:0.294s,1.008s"/><rect class="b" x="395.64" y="141.42" width="3.17" height="78.58" style="animation-delay:0.297s,1.020s"/><rect class="b" x="400.29" y="140.76" width="3.17" height="79.24" style="animation-delay:0.301s,1.032s"/><rect class="b" x="404.95" y="140.03" width="3.17" height="79.97" style="animation-delay:0.304s,1.044s"/><rect class="b" x="409.60" y="139.03" width="3.17" height="80.97" style="animation-delay:0.308s,1.056s"/><rect class="b" x="414.25" y="138.41" width="3.17" height="81.59" style="animation-delay:0.311s,1.068s"/><rect class="b" x="418.91" y="137.62" width="3.17" height="82.38" style="animation-delay:0.315s,1.080s"/><rect class="b" x="423.56" y="137.29" width="3.17" height="82.71" style="animation-delay:0.319s,1.092s"/><rect class="b" x="428.22" y="136.82" width="3.17" height="83.18" style="animation-delay:0.322s,1.104s"/><rect class="b" x="432.87" y="136.21" width="3.17" height="83.79" style="animation-delay:0.326s,1.116s"/><rect class="b" x="437.53" y="135.54" width="3.17" height="84.46" style="animation-delay:0.329s,1.128s"/><rect class="b" x="442.18" y="135.44" width="3.17" height="84.56" style="animation-delay:0.333s,1.140s"/><rect class="b" x="446.84" y="133.82" width="3.17" height="86.18" style="animation-delay:0.336s,1.152s"/><rect class="b" x="451.49" y="133.08" width="3.17" height="86.92" style="animation-delay:0.340s,1.164s"/><rect class="b" x="456.15" y="132.39" width="3.17" height="87.61" style="animation-delay:0.343s,1.176s"/><rect class="b" x="460.80" y="131.95" width="3.17" height="88.05" style="animation-delay:0.347s,1.188s"/><rect class="b" x="465.45" y="130.66" width="3.17" height="89.34" style="animation-delay:0.350s,1.200s"/><rect class="b" x="470.11" y="129.53" width="3.17" height="90.47" style="animation-delay:0.353s,1.212s"/><rect class="b" x="474.76" y="128.81" width="3.17" height="91.19" style="animation-delay:0.357s,1.224s"/><rect class="b" x="479.42" y="127.67" width="3.17" height="92.33" style="animation-delay:0.360s,1.236s"/><rect class="b" x="484.07" y="126.27" width="3.17" height="93.73" style="animation-delay:0.364s,1.248s"/><rect class="b" x="488.73" y="125.24" width="3.17" height="94.76" style="animation-delay:0.367s,1.260s"/><rect class="b" x="493.38" y="124.72" width="3.17" height="95.28" style="animation-delay:0.371s,1.272s"/><rect class="b" x="498.04" y="123.59" width="3.17" height="96.41" style="animation-delay:0.374s,1.284s"/><rect class="b" x="502.69" y="123.18" width="3.17" height="96.82" style="animation-delay:0.378s,1.296s"/><rect class="b" x="507.35" y="122.16" width="3.17" height="97.84" style="animation-delay:0.382s,1.308s"/><rect class="b" x="512.00" y="121.42" width="3.17" height="98.58" style="animation-delay:0.385s,1.320s"/><rect class="b" x="516.65" y="120.45" width="3.17" height="99.55" style="animation-delay:0.389s,1.332s"/><rect class="b" x="521.31" y="120.05" width="3.17" height="99.95" style="animation-delay:0.392s,1.344s"/><rect class="b" x="525.96" y="119.17" width="3.17" height="100.83" style="animation-delay:0.396s,1.356s"/><rect class="b" x="530.62" y="117.84" width="3.17" height="102.16" style="animation-delay:0.399s,1.368s"/><rect class="b" x="535.27" y="116.68" width="3.17" height="103.32" style="animation-delay:0.403s,1.380s"/><rect class="b" x="539.93" y="115.40" width="3.17" height="104.60" style="animation-delay:0.406s,1.392s"/><rect class="b" x="544.58" y="114.72" width="3.17" height="105.28" style="animation-delay:0.410s,1.404s"/><rect class="b" x="549.24" y="114.02" width="3.17" height="105.98" style="animation-delay:0.413s,1.416s"/><rect class="b" x="553.89" y="113.04" width="3.17" height="106.96" style="animation-delay:0.416s,1.428s"/><rect class="b" x="558.55" y="111.97" width="3.17" height="108.03" style="animation-delay:0.420s,1.440s"/><rect class="b" x="563.20" y="110.66" width="3.17" height="109.34" style="animation-delay:0.423s,1.452s"/><rect class="b" x="567.85" y="109.50" width="3.17" height="110.50" style="animation-delay:0.427s,1.464s"/><rect class="b" x="572.51" y="108.66" width="3.17" height="111.34" style="animation-delay:0.430s,1.476s"/><rect class="b" x="577.16" y="107.95" width="3.17" height="112.05" style="animation-delay:0.434s,1.488s"/><rect class="b" x="581.82" y="105.76" width="3.17" height="114.24" style="animation-delay:0.438s,1.500s"/><rect class="b" x="586.47" y="104.73" width="3.17" height="115.27" style="animation-delay:0.441s,1.512s"/><rect class="b" x="591.13" y="103.40" width="3.17" height="116.60" style="animation-delay:0.445s,1.524s"/><rect class="b" x="595.78" y="102.63" width="3.17" height="117.37" style="animation-delay:0.448s,1.536s"/><rect class="b" x="600.44" y="101.65" width="3.17" height="118.35" style="animation-delay:0.452s,1.548s"/><rect class="b" x="605.09" y="100.55" width="3.17" height="119.45" style="animation-delay:0.455s,1.560s"/><rect class="b" x="609.75" y="99.68" width="3.17" height="120.32" style="animation-delay:0.459s,1.572s"/><rect class="b" x="614.40" y="98.75" width="3.17" height="121.25" style="animation-delay:0.462s,1.584s"/><rect class="b" x="619.05" y="98.70" width="3.17" height="121.30" style="animation-delay:0.466s,1.596s"/><rect class="b" x="623.71" y="97.87" width="3.17" height="122.13" style="animation-delay:0.469s,1.608s"/><rect class="b" x="628.36" y="96.09" width="3.17" height="123.91" style="animation-delay:0.473s,1.620s"/><rect class="b" x="633.02" y="94.33" width="3.17" height="125.67" style="animation-delay:0.476s,1.632s"/><rect class="b" x="637.67" y="93.89" width="3.17" height="126.11" style="animation-delay:0.480s,1.644s"/><rect class="b" x="642.33" y="92.75" width="3.17" height="127.25" style="animation-delay:0.483s,1.656s"/><rect class="b" x="646.98" y="92.49" width="3.17" height="127.51" style="animation-delay:0.486s,1.668s"/><rect class="b" x="651.64" y="92.60" width="3.17" height="127.40" style="animation-delay:0.490s,1.680s"/><rect class="b" x="656.29" y="91.92" width="3.17" height="128.08" style="animation-delay:0.493s,1.692s"/><rect class="b" x="660.95" y="91.51" width="3.17" height="128.49" style="animation-delay:0.497s,1.704s"/><rect class="b" x="665.60" y="91.04" width="3.17" height="128.96" style="animation-delay:0.501s,1.716s"/><rect class="b" x="670.25" y="90.22" width="3.17" height="129.78" style="animation-delay:0.504s,1.728s"/><rect class="b" x="674.91" y="89.08" width="3.17" height="130.92" style="animation-delay:0.508s,1.740s"/><rect class="b" x="679.56" y="87.91" width="3.17" height="132.09" style="animation-delay:0.511s,1.752s"/><rect class="b" x="684.22" y="86.83" width="3.17" height="133.17" style="animation-delay:0.514s,1.764s"/><rect class="b" x="688.87" y="85.65" width="3.17" height="134.35" style="animation-delay:0.518s,1.776s"/><rect class="b" x="693.53" y="84.65" width="3.17" height="135.35" style="animation-delay:0.521s,1.788s"/><rect class="b" x="698.18" y="83.95" width="3.17" height="136.05" style="animation-delay:0.525s,1.800s"/><rect class="b" x="702.84" y="83.38" width="3.17" height="136.62" style="animation-delay:0.528s,1.812s"/><rect class="b" x="707.49" y="82.55" width="3.17" height="137.45" style="animation-delay:0.532s,1.824s"/><rect class="b" x="712.15" y="81.95" width="3.17" height="138.05" style="animation-delay:0.535s,1.836s"/><rect class="b" x="716.80" y="81.12" width="3.17" height="138.88" style="animation-delay:0.539s,1.848s"/><rect class="b" x="721.45" y="80.61" width="3.17" height="139.39" style="animation-delay:0.542s,1.860s"/><rect class="b" x="726.11" y="80.06" width="3.17" height="139.94" style="animation-delay:0.546s,1.872s"/><rect class="b" x="730.76" y="79.72" width="3.17" height="140.28" style="animation-delay:0.549s,1.884s"/><rect class="b" x="735.42" y="79.18" width="3.17" height="140.82" style="animation-delay:0.553s,1.896s"/><rect class="b" x="740.07" y="78.76" width="3.17" height="141.24" style="animation-delay:0.556s,1.908s"/><rect class="b" x="744.73" y="78.20" width="3.17" height="141.80" style="animation-delay:0.560s,1.920s"/><rect class="b" x="749.38" y="77.51" width="3.17" height="142.49" style="animation-delay:0.564s,1.932s"/><rect class="b" x="754.04" y="76.87" width="3.17" height="143.13" style="animation-delay:0.567s,1.944s"/><rect class="b" x="758.69" y="75.91" width="3.17" height="144.09" style="animation-delay:0.571s,1.956s"/><rect class="b" x="763.35" y="75.39" width="3.17" height="144.61" style="animation-delay:0.574s,1.968s"/><rect class="b" x="768.00" y="74.50" width="3.17" height="145.50" style="animation-delay:0.578s,1.980s"/><rect class="b" x="772.65" y="73.82" width="3.17" height="146.18" style="animation-delay:0.581s,1.992s"/><rect class="b" x="777.31" y="73.00" width="3.17" height="147.00" style="animation-delay:0.585s,2.004s"/><rect class="b" x="781.96" y="72.18" width="3.17" height="147.82" style="animation-delay:0.588s,2.016s"/><rect class="b" x="786.62" y="71.47" width="3.17" height="148.53" style="animation-delay:0.592s,2.028s"/><rect class="b" x="791.27" y="70.90" width="3.17" height="149.10" style="animation-delay:0.595s,2.040s"/><rect class="b" x="795.93" y="70.55" width="3.17" height="149.45" style="animation-delay:0.599s,2.052s"/><rect class="b" x="800.58" y="69.70" width="3.17" height="150.30" style="animation-delay:0.602s,2.064s"/><rect class="b" x="805.24" y="69.15" width="3.17" height="150.85" style="animation-delay:0.606s,2.076s"/><rect class="b" x="809.89" y="68.79" width="3.17" height="151.21" style="animation-delay:0.609s,2.088s"/><rect class="b" x="814.55" y="68.83" width="3.17" height="151.17" style="animation-delay:0.613s,2.100s"/><rect class="b" x="819.20" y="68.63" width="3.17" height="151.37" style="animation-delay:0.616s,2.112s"/><rect class="b" x="823.85" y="68.06" width="3.17" height="151.94" style="animation-delay:0.620s,2.124s"/><rect class="b" x="828.51" y="67.59" width="3.17" height="152.41" style="animation-delay:0.623s,2.136s"/><rect class="b" x="833.16" y="67.21" width="3.17" height="152.79" style="animation-delay:0.627s,2.148s"/><rect class="b" x="837.82" y="66.58" width="3.17" height="153.42" style="animation-delay:0.630s,2.160s"/><rect class="b" x="842.47" y="65.91" width="3.17" height="154.09" style="animation-delay:0.634s,2.172s"/><rect class="b" x="847.13" y="65.34" width="3.17" height="154.66" style="animation-delay:0.637s,2.184s"/><rect class="b" x="851.78" y="64.69" width="3.17" height="155.31" style="animation-delay:0.640s,2.196s"/><rect class="b" x="856.44" y="64.40" width="3.17" height="155.60" style="animation-delay:0.644s,2.208s"/><rect class="b" x="861.09" y="63.93" width="3.17" height="156.07" style="animation-delay:0.647s,2.220s"/><rect class="b" x="865.75" y="63.51" width="3.17" height="156.49" style="animation-delay:0.651s,2.232s"/><rect class="b" x="870.40" y="62.79" width="3.17" height="157.21" style="animation-delay:0.654s,2.244s"/><rect class="b" x="875.05" y="62.22" width="3.17" height="157.78" style="animation-delay:0.658s,2.256s"/><rect class="b" x="879.71" y="61.49" width="3.17" height="158.51" style="animation-delay:0.661s,2.268s"/><rect class="b" x="884.36" y="61.05" width="3.17" height="158.95" style="animation-delay:0.665s,2.280s"/><rect class="b" x="889.02" y="60.40" width="3.17" height="159.60" style="animation-delay:0.668s,2.292s"/><rect class="b" x="893.67" y="60.04" width="3.17" height="159.96" style="animation-delay:0.672s,2.304s"/><rect class="b" x="898.33" y="59.74" width="3.17" height="160.26" style="animation-delay:0.675s,2.316s"/><rect class="b" x="902.98" y="59.22" width="3.17" height="160.78" style="animation-delay:0.679s,2.328s"/><rect class="b" x="907.64" y="58.75" width="3.17" height="161.25" style="animation-delay:0.682s,2.340s"/><rect class="b" x="912.29" y="58.29" width="3.17" height="161.71" style="animation-delay:0.686s,2.352s"/><rect class="b" x="916.95" y="57.46" width="3.17" height="162.54" style="animation-delay:0.690s,2.364s"/><rect class="b" x="921.60" y="56.99" width="3.17" height="163.01" style="animation-delay:0.693s,2.376s"/><rect class="b" x="926.25" y="56.39" width="3.17" height="163.61" style="animation-delay:0.697s,2.388s"/><rect class="b" x="930.91" y="55.85" width="3.17" height="164.15" style="animation-delay:0.700s,2.400s"/><rect class="b" x="935.56" y="55.16" width="3.17" height="164.84" style="animation-delay:0.704s,2.412s"/><rect class="b" x="940.22" y="54.53" width="3.17" height="165.47" style="animation-delay:0.707s,2.424s"/><rect class="b" x="944.87" y="54.10" width="3.17" height="165.90" style="animation-delay:0.711s,2.436s"/><rect class="b" x="949.53" y="53.65" width="3.17" height="166.35" style="animation-delay:0.714s,2.448s"/><rect class="b" x="954.18" y="53.19" width="3.17" height="166.81" style="animation-delay:0.718s,2.460s"/><rect class="b" x="958.84" y="52.54" width="3.17" height="167.46" style="animation-delay:0.721s,2.472s"/><rect class="b" x="963.49" y="51.78" width="3.17" height="168.22" style="animation-delay:0.725s,2.484s"/><rect class="b" x="968.15" y="51.28" width="3.17" height="168.72" style="animation-delay:0.728s,2.496s"/><rect class="b" x="972.80" y="50.83" width="3.17" height="169.17" style="animation-delay:0.732s,2.508s"/><rect class="b" x="977.45" y="50.20" width="3.17" height="169.80" style="animation-delay:0.735s,2.520s"/><rect class="b" x="982.11" y="49.35" width="3.17" height="170.65" style="animation-delay:0.739s,2.532s"/><rect class="b" x="986.76" y="48.94" width="3.17" height="171.06" style="animation-delay:0.742s,2.544s"/><rect class="b" x="991.42" y="47.99" width="3.17" height="172.01" style="animation-delay:0.746s,2.556s"/><rect class="b" x="996.07" y="47.69" width="3.17" height="172.31" style="animation-delay:0.749s,2.568s"/><rect class="b" x="1000.73" y="47.26" width="3.17" height="172.74" style="animation-delay:0.753s,2.580s"/><rect class="b" x="1005.38" y="47.13" width="3.17" height="172.87" style="animation-delay:0.756s,2.592s"/><rect class="b" x="1010.04" y="46.65" width="3.17" height="173.35" style="animation-delay:0.760s,2.604s"/><rect class="b" x="1014.69" y="46.64" width="3.17" height="173.36" style="animation-delay:0.763s,2.616s"/><rect class="b" x="1019.35" y="46.42" width="3.17" height="173.58" style="animation-delay:0.767s,2.628s"/><rect class="b" x="1024.00" y="45.94" width="3.17" height="174.06" style="animation-delay:0.770s,2.640s"/><rect class="b" x="1028.65" y="45.58" width="3.17" height="174.42" style="animation-delay:0.773s,2.652s"/><rect class="b" x="1033.31" y="45.21" width="3.17" height="174.79" style="animation-delay:0.777s,2.664s"/><rect class="b" x="1037.96" y="44.98" width="3.17" height="175.02" style="animation-delay:0.780s,2.676s"/><rect class="b" x="1042.62" y="44.54" width="3.17" height="175.46" style="animation-delay:0.784s,2.688s"/><rect class="b" x="1047.27" y="44.05" width="3.17" height="175.95" style="animation-delay:0.787s,2.700s"/><rect class="b" x="1051.93" y="43.19" width="3.17" height="176.81" style="animation-delay:0.791s,2.712s"/><rect class="b" x="1056.58" y="42.55" width="3.17" height="177.45" style="animation-delay:0.794s,2.724s"/><rect class="b" x="1061.24" y="41.99" width="3.17" height="178.01" style="animation-delay:0.798s,2.736s"/><rect class="b" x="1065.89" y="41.37" width="3.17" height="178.63" style="animation-delay:0.801s,2.748s"/><rect class="b" x="1070.55" y="40.77" width="3.17" height="179.23" style="animation-delay:0.805s,2.760s"/><rect class="b" x="1075.20" y="40.17" width="3.17" height="179.83" style="animation-delay:0.808s,2.772s"/><rect class="b" x="1079.85" y="39.39" width="3.17" height="180.61" style="animation-delay:0.812s,2.784s"/><rect class="b" x="1084.51" y="38.91" width="3.17" height="181.09" style="animation-delay:0.816s,2.796s"/><rect class="b" x="1089.16" y="38.22" width="3.17" height="181.78" style="animation-delay:0.819s,2.808s"/><rect class="b" x="1093.82" y="37.70" width="3.17" height="182.30" style="animation-delay:0.823s,2.820s"/><rect class="b" x="1098.47" y="36.93" width="3.17" height="183.07" style="animation-delay:0.826s,2.832s"/><rect class="b" x="1103.13" y="36.50" width="3.17" height="183.50" style="animation-delay:0.830s,2.844s"/><rect class="b" x="1107.78" y="36.20" width="3.17" height="183.80" style="animation-delay:0.833s,2.856s"/><rect class="b" x="1112.44" y="35.76" width="3.17" height="184.24" style="animation-delay:0.837s,2.868s"/><rect class="b" x="1117.09" y="35.30" width="3.17" height="184.70" style="animation-delay:0.840s,2.880s"/><rect class="b" x="1121.75" y="34.78" width="3.17" height="185.22" style="animation-delay:0.844s,2.892s"/><rect class="b" x="1126.40" y="34.38" width="3.17" height="185.62" style="animation-delay:0.847s,2.904s"/><rect class="b" x="1131.05" y="34.08" width="3.17" height="185.92" style="animation-delay:0.851s,2.916s"/><rect class="b" x="1135.71" y="34.12" width="3.17" height="185.88" style="animation-delay:0.854s,2.928s"/><rect class="b" x="1140.36" y="33.74" width="3.17" height="186.26" style="animation-delay:0.858s,2.940s"/><rect class="b" x="1145.02" y="33.66" width="3.17" height="186.34" style="animation-delay:0.861s,2.952s"/><rect class="b" x="1149.67" y="34.44" width="3.17" height="185.56" style="animation-delay:0.865s,2.964s"/><rect class="b" x="1154.33" y="34.89" width="3.17" height="185.11" style="animation-delay:0.868s,2.976s"/><rect class="b" x="1158.98" y="35.00" width="3.17" height="185.00" style="animation-delay:0.872s,2.988s"/><rect class="b" x="1163.64" y="34.88" width="3.17" height="185.12" style="animation-delay:0.875s,3.000s"/><rect class="b" x="1168.29" y="34.39" width="3.17" height="185.61" style="animation-delay:0.879s,3.012s"/><rect class="b" x="1172.95" y="34.09" width="3.17" height="185.91" style="animation-delay:0.882s,3.024s"/><rect class="b" x="1177.60" y="33.54" width="3.17" height="186.46" style="animation-delay:0.886s,3.036s"/><rect class="b" x="1182.25" y="33.10" width="3.17" height="186.90" style="animation-delay:0.889s,3.048s"/><rect class="b" x="1186.91" y="32.66" width="3.17" height="187.34" style="animation-delay:0.893s,3.060s"/><rect class="b" x="1191.56" y="32.63" width="3.17" height="187.37" style="animation-delay:0.896s,3.072s"/><rect class="b" x="1196.22" y="32.07" width="3.17" height="187.93" style="animation-delay:0.899s,3.084s"/><rect class="b" x="1200.87" y="31.75" width="3.17" height="188.25" style="animation-delay:0.903s,3.096s"/><rect class="b" x="1205.53" y="31.26" width="3.17" height="188.74" style="animation-delay:0.906s,3.108s"/><rect class="b" x="1210.18" y="30.80" width="3.17" height="189.20" style="animation-delay:0.910s,3.120s"/><rect class="b" x="1214.84" y="30.44" width="3.17" height="189.56" style="animation-delay:0.913s,3.132s"/><rect class="b" x="1219.49" y="30.18" width="3.17" height="189.82" style="animation-delay:0.917s,3.144s"/><rect class="b" x="1224.15" y="30.01" width="3.17" height="189.99" style="animation-delay:0.920s,3.156s"/><rect class="b" x="1228.80" y="29.67" width="3.17" height="190.33" style="animation-delay:0.924s,3.168s"/><rect class="b" x="1233.45" y="29.47" width="3.17" height="190.53" style="animation-delay:0.927s,3.180s"/><rect class="b" x="1238.11" y="29.00" width="3.17" height="191.00" style="animation-delay:0.931s,3.192s"/><rect class="b" x="1242.76" y="28.47" width="3.17" height="191.53" style="animation-delay:0.934s,3.204s"/><rect class="b" x="1247.42" y="28.40" width="3.17" height="191.60" style="animation-delay:0.938s,3.216s"/><rect class="b" x="1252.07" y="27.75" width="3.17" height="192.25" style="animation-delay:0.942s,3.228s"/><rect class="b" x="1256.73" y="27.19" width="3.17" height="192.81" style="animation-delay:0.945s,3.240s"/><rect class="b" x="1261.38" y="26.98" width="3.17" height="193.02" style="animation-delay:0.949s,3.252s"/><rect class="b" x="1266.04" y="26.91" width="3.17" height="193.09" style="animation-delay:0.952s,3.264s"/><rect class="b" x="1270.69" y="26.33" width="3.17" height="193.67" style="animation-delay:0.956s,3.276s"/><rect class="b" x="1275.35" y="26.00" width="3.17" height="194.00" style="animation-delay:0.959s,3.288s"/></g>
<rect width="601" height="220" fill="url(#scrim)"/>
<text x="56" y="103" fill="#f2f4f7" font-family="Source Serif 4, Georgia, Times New Roman, serif" font-size="44" font-weight="600" letter-spacing="-0.5">James Liebel</text>
<text x="58" y="136" fill="#8b929e" font-family="IBM Plex Mono, ui-monospace, Consolas, monospace" font-size="11" font-weight="500" letter-spacing="2.2">DATA SCIENCE &amp; STATISTICS &#183; CHICAGO &#8217;30</text>
</svg>
